<!DOCTYPE svg PUBLIC "-//W3C//DTD SVG 1.1//EN" "http://www.w3.org/Graphics/SVG/1.1/DTD/svg11.dtd">
<!-- Uploaded to: SVG Repo, www.svgrepo.com, Transformed by: SVG Repo Mixer Tools -->
<svg width="800px" height="800px" viewBox="0 0 192 192" xmlns="http://www.w3.org/2000/svg" fill="none" stroke="#54220c">
<g id="SVGRepo_bgCarrier" stroke-width="0"/>
<g id="SVGRepo_tracerCarrier" stroke-linecap="round" stroke-linejoin="round"/>
<g id="SVGRepo_iconCarrier">
<path fill="#54220c" fill-rule="evenodd" d="M112 28H28v84h28.495a64.619 64.619 0 0 0-.372 12H28c-6.627 0-12-5.373-12-12V28c0-6.627 5.373-12 12-12h84c6.627 0 12 5.373 12 12v28.123a64.977 64.977 0 0 0-12 .372V28Zm-27.556 92c0-2.751.313-5.429.904-8H112V85.348a35.946 35.946 0 0 1 12-.681V112c0 6.627-5.373 12-12 12H84.667a35.946 35.946 0 0 1-.223-4Zm79.112 0c0 24.055-19.501 43.556-43.556 43.556-24.055 0-43.556-19.501-43.556-43.556 0-24.055 19.5-43.556 43.556-43.556 24.055 0 43.556 19.5 43.556 43.556ZM176 120c0 30.928-25.072 56-56 56s-56-25.072-56-56 25.072-56 56-56 56 25.072 56 56Z" clip-rule="evenodd"/>
</g>
</svg>